<svg width="16" height="19" viewBox="0 0 16 19" fill="none" xmlns="http://www.w3.org/2000/svg">
<path d="M15.984 1.00362C15.9551 0.83426 15.8893 0.672924 15.7911 0.530484C15.6928 0.388043 15.5644 0.26781 15.4146 0.177891C15.2647 0.0879717 15.0968 0.0304559 14.9222 0.00922132C14.7476 -0.0120132 14.5704 0.00352711 14.4025 0.0547945L5.78708 2.68147C5.53657 2.75779 5.31761 2.91025 5.16218 3.11659C5.00674 3.32294 4.92297 3.57237 4.92308 3.82846V13.5953C4.36857 13.1895 3.68988 12.9782 2.99698 12.9958C2.30408 13.0134 1.63755 13.2587 1.1054 13.6921C0.573239 14.1255 0.206627 14.7216 0.0649577 15.3837C-0.0767112 16.0458 0.0148628 16.7352 0.324843 17.3402C0.634823 17.9452 1.14505 18.4303 1.77285 18.717C2.40066 19.0037 3.10926 19.0751 3.78386 18.9197C4.45845 18.7643 5.05952 18.3911 5.48967 17.8608C5.91981 17.3304 6.15385 16.6738 6.15385 15.9974V7.43158L14.7692 4.80371V11.1932C14.2147 10.7874 13.536 10.5762 12.8431 10.5937C12.1502 10.6113 11.4837 10.8567 10.9515 11.2901C10.4194 11.7235 10.0528 12.3195 9.91111 12.9816C9.76944 13.6437 9.86101 14.3331 10.171 14.9381C10.481 15.5431 10.9912 16.0282 11.619 16.3149C12.2468 16.6016 12.9554 16.673 13.63 16.5176C14.3046 16.3622 14.9057 15.9891 15.3358 15.4587C15.766 14.9283 16 14.2717 16 13.5953V1.20059C16 1.13333 15.9938 1.06847 15.984 1.00362Z" fill="#8C8B8F"/>
</svg>
