<svg width="35" height="35" viewBox="0 0 35 35" fill="none" xmlns="http://www.w3.org/2000/svg">
<path d="M24.984 9.00362C24.9551 8.83426 24.8893 8.67292 24.7911 8.53048C24.6928 8.38804 24.5644 8.26781 24.4146 8.17789C24.2647 8.08797 24.0968 8.03046 23.9222 8.00922C23.7476 7.98799 23.5704 8.00353 23.4025 8.05479L14.7871 10.6815C14.5366 10.7578 14.3176 10.9102 14.1622 11.1166C14.0067 11.3229 13.923 11.5724 13.9231 11.8285V21.5953C13.3686 21.1895 12.6899 20.9782 11.997 20.9958C11.3041 21.0134 10.6376 21.2587 10.1054 21.6921C9.57324 22.1255 9.20663 22.7216 9.06496 23.3837C8.92329 24.0458 9.01486 24.7352 9.32484 25.3402C9.63482 25.9452 10.145 26.4303 10.7729 26.717C11.4007 27.0037 12.1093 27.0751 12.7839 26.9197C13.4585 26.7643 14.0595 26.3911 14.4897 25.8608C14.9198 25.3304 15.1538 24.6738 15.1538 23.9974V15.4316L23.7692 12.8037V19.1932C23.2147 18.7874 22.536 18.5762 21.8431 18.5937C21.1502 18.6113 20.4837 18.8567 19.9515 19.2901C19.4194 19.7235 19.0528 20.3195 18.9111 20.9816C18.7694 21.6437 18.861 22.3331 19.171 22.9381C19.481 23.5431 19.9912 24.0282 20.619 24.3149C21.2468 24.6016 21.9554 24.673 22.63 24.5176C23.3046 24.3622 23.9057 23.9891 24.3358 23.4587C24.766 22.9283 25 22.2717 25 21.5953V9.20059C25 9.13333 24.9938 9.06847 24.984 9.00362Z" fill="#8C8B8F"/>
<circle cx="17.5" cy="17.5" r="17" stroke="#8C8B8F"/>
</svg>
