<svg width="11" height="19" viewBox="0 0 11 19" fill="none" xmlns="http://www.w3.org/2000/svg">
<path d="M4.71497 3.60846H6.28503V19H4.71497V3.60846ZM1.83393 8.92709C1.25701 8.36563 0.795425 7.67781 0.479393 6.90863C0.163361 6.13944 0 5.30624 0 4.46355C0 3.62085 0.163361 2.78765 0.479393 2.01847C0.795425 1.24929 1.25701 0.56146 1.83393 0L2.88586 1.27408C2.47341 1.67513 2.14339 2.16658 1.91743 2.71622C1.69146 3.26587 1.57466 3.86131 1.57466 4.46355C1.57466 5.06578 1.69146 5.66122 1.91743 6.21087C2.14339 6.76051 2.47341 7.25196 2.88586 7.65301L1.83393 8.92709ZM9.16607 8.92709L8.11414 7.65301C8.52659 7.25196 8.85661 6.76051 9.08257 6.21087C9.30853 5.66122 9.42534 5.06578 9.42534 4.46355C9.42534 3.86131 9.30853 3.26587 9.08257 2.71622C8.85661 2.16658 8.52659 1.67513 8.11414 1.27408L9.16607 0C9.74299 0.56146 10.2046 1.24929 10.5206 2.01847C10.8366 2.78765 11 3.62085 11 4.46355C11 5.30624 10.8366 6.13944 10.5206 6.90863C10.2046 7.67781 9.74299 8.36563 9.16607 8.92709Z" fill="#E6444F"/>
</svg>
