<svg width="20" height="22" viewBox="0 0 20 22" fill="none" xmlns="http://www.w3.org/2000/svg">
<path d="M8.71497 6.60846H10.285V22H8.71497V6.60846ZM5.83393 11.9271C5.25701 11.3656 4.79543 10.6778 4.47939 9.90863C4.16336 9.13945 4 8.30624 4 7.46355C4 6.62085 4.16336 5.78765 4.47939 5.01847C4.79543 4.24929 5.25701 3.56146 5.83393 3L6.88586 4.27408C6.47341 4.67513 6.14339 5.16658 5.91743 5.71622C5.69146 6.26587 5.57466 6.86131 5.57466 7.46355C5.57466 8.06578 5.69146 8.66122 5.91743 9.21087C6.14339 9.76051 6.47341 10.252 6.88586 10.653L5.83393 11.9271ZM13.1661 11.9271L12.1141 10.653C12.5266 10.252 12.8566 9.76051 13.0826 9.21087C13.3085 8.66122 13.4253 8.06578 13.4253 7.46355C13.4253 6.86131 13.3085 6.26587 13.0826 5.71622C12.8566 5.16658 12.5266 4.67513 12.1141 4.27408L13.1661 3C13.743 3.56146 14.2046 4.24929 14.5206 5.01847C14.8366 5.78765 15 6.62085 15 7.46355C15 8.30624 14.8366 9.13945 14.5206 9.90863C14.2046 10.6778 13.743 11.3656 13.1661 11.9271Z" fill="#E6444F"/>
<path d="M3.66667 15C2.5282 14.1267 1.60417 12.9944 0.967751 11.6926C0.33133 10.3909 0 8.95542 0 7.5C0 6.04458 0.33133 4.60914 0.967751 3.30737C1.60417 2.0056 2.5282 0.873254 3.66667 0L4.66667 1.36364C3.7352 2.07812 2.97917 3.00458 2.45846 4.06967C1.93775 5.13475 1.66667 6.3092 1.66667 7.5C1.66667 8.6908 1.93775 9.86525 2.45846 10.9303C2.97917 11.9954 3.7352 12.9219 4.66667 13.6364L3.66667 15ZM16.3333 15L15.3333 13.6364C16.2648 12.9219 17.0208 11.9954 17.5415 10.9303C18.0622 9.86525 18.3333 8.6908 18.3333 7.5C18.3333 6.3092 18.0622 5.13475 17.5415 4.06967C17.0208 3.00458 16.2648 2.07812 15.3333 1.36364L16.3333 0C17.4718 0.873254 18.3958 2.0056 19.0322 3.30737C19.6687 4.60914 20 6.04458 20 7.5C20 8.95542 19.6687 10.3909 19.0322 11.6926C18.3958 12.9944 17.4718 14.1267 16.3333 15Z" fill="#E6444F"/>
</svg>
