<svg width="20" height="15" viewBox="0 0 20 15" fill="none" xmlns="http://www.w3.org/2000/svg">
<path d="M3.66667 15C2.5282 14.1267 1.60417 12.9944 0.967751 11.6926C0.33133 10.3909 0 8.95542 0 7.5C0 6.04458 0.33133 4.60914 0.967751 3.30737C1.60417 2.0056 2.5282 0.873254 3.66667 0L4.66667 1.36364C3.7352 2.07812 2.97917 3.00458 2.45846 4.06967C1.93775 5.13475 1.66667 6.3092 1.66667 7.5C1.66667 8.6908 1.93775 9.86525 2.45846 10.9303C2.97917 11.9954 3.7352 12.9219 4.66667 13.6364L3.66667 15ZM16.3333 15L15.3333 13.6364C16.2648 12.9219 17.0208 11.9954 17.5415 10.9303C18.0622 9.86525 18.3333 8.6908 18.3333 7.5C18.3333 6.3092 18.0622 5.13475 17.5415 4.06967C17.0208 3.00458 16.2648 2.07812 15.3333 1.36364L16.3333 0C17.4718 0.873254 18.3958 2.0056 19.0322 3.30737C19.6687 4.60914 20 6.04458 20 7.5C20 8.95542 19.6687 10.3909 19.0322 11.6926C18.3958 12.9944 17.4718 14.1267 16.3333 15Z" fill="#E6444F"/>
</svg>
